# xmcd CD database file
#
# Track frame offsets:
#	150
#	13348
#	25678
#	43249
#	56038
#	67730
#	82610
#	96389
#	110687
#	123367
#	135178
#	149637
#	163265
#	176154
#	190205
#	202027
#	213921
#	225826
#	239210
#	252104
#	266906
#	279408
#	291722
#	307395
#
# Disc length: 4310 seconds
#
# Revision: 0
# Processed by: cddbd v1.5PL3 Copyright (c) Steve Scherf et al.
# Submitted via: CDex 1.60beta1
#
DISCID=7510d418
DTITLE=The Back Bay Ramblers - Cuttin' Up
DYEAR=2001
DGENRE=Jazz
TTITLE0=Cuttin' Up
TTITLE1=Who Wouldn't Be Jealous of You?
TTITLE2=That Too, Do
TTITLE3=An Ev'ning in Caroline
TTITLE4=Loved One
TTITLE5=Raisin' the Roof
TTITLE6=Top and Bottom
TTITLE7=Concentratin' (on You)
TTITLE8=I Want You Myself
TTITLE9=What Kind of Rhythm Is That?
TTITLE10=Easy Money
TTITLE11=My Man from Caroline
TTITLE12=Coal Yard Shuffle
TTITLE13=Hot Heels
TTITLE14=Here Comes Marjorie
TTITLE15=I Have to Have You
TTITLE16=Little by Little
TTITLE17=My Sweeter Than Sweet
TTITLE18=Crazy 'Bout My Gal
TTITLE19=Love Ain't Nothin' But the Blues
TTITLE20=Corky Stomp
TTITLE21=Harlem
TTITLE22=The Dicty Glide
TTITLE23=New Orleans Bump
EXTD=YEAR: 2001
EXTT0=
EXTT1=
EXTT2=
EXTT3=
EXTT4=
EXTT5=
EXTT6=
EXTT7=
EXTT8=
EXTT9=
EXTT10=
EXTT11=
EXTT12=
EXTT13=
EXTT14=
EXTT15=
EXTT16=
EXTT17=
EXTT18=
EXTT19=
EXTT20=
EXTT21=
EXTT22=
EXTT23=
PLAYORDER=
